<svg width="100.000000" height="50.000000" viewBox="0 0 100 50" fill="none" xmlns="http://www.w3.org/2000/svg" xmlns:xlink="http://www.w3.org/1999/xlink">
	<desc>
			Created with Pixso.
	</desc>
	<defs/>
	<path id="path" d="M0 10.88L6.05 21.7L6.05 28.3L0 39.1L0 10.88Z" fill="#5B57A2" fill-opacity="1.000000" fill-rule="nonzero"/>
	<path id="path" d="M23.24 17.76L28.92 14.29L40.53 14.27L23.24 24.86L23.24 17.76Z" fill="#D90751" fill-opacity="1.000000" fill-rule="nonzero"/>
	<path id="path" d="M23.21 10.81L23.24 25.14L17.17 21.41L17.17 0L23.21 10.81L23.21 10.81Z" fill="#FAB718" fill-opacity="1.000000" fill-rule="nonzero"/>
	<path id="path" d="M40.53 14.27L28.92 14.29L23.21 10.81L17.17 0L40.53 14.27L40.53 14.27Z" fill="#ED6F26" fill-opacity="1.000000" fill-rule="nonzero"/>
	<path id="path" d="M23.24 39.16L23.24 32.21L17.17 28.55L17.18 49.99L23.24 39.16Z" fill="#63B22F" fill-opacity="1.000000" fill-rule="nonzero"/>
	<path id="path" d="M28.9 35.72L6.05 21.7L0 10.88L40.5 35.7L28.9 35.72L28.9 35.72Z" fill="#1487C9" fill-opacity="1.000000" fill-rule="nonzero"/>
	<path id="path" d="M17.18 50L23.24 39.16L28.9 35.72L40.5 35.71L17.18 50Z" fill="#017F36" fill-opacity="1.000000" fill-rule="nonzero"/>
	<path id="path" d="M0 39.1L17.22 28.55L11.43 25L6.05 28.3L0 39.1Z" fill="#984995" fill-opacity="1.000000" fill-rule="nonzero"/>
	<path id="path" d="M66.2 26.7C70.1 26.7 73.01 24.3 73.01 20.67C73.01 17.15 70.87 14.87 67.29 14.87C65.64 14.87 64.27 15.45 63.25 16.45C63.49 14.38 65.25 12.87 67.18 12.87C67.62 12.87 70.97 12.86 70.97 12.86L72.87 9.23C72.87 9.23 68.66 9.33 66.7 9.33C62.23 9.41 59.21 13.47 59.21 18.41C59.21 24.16 62.16 26.7 66.2 26.7ZM66.22 18.08C67.67 18.08 68.68 19.04 68.68 20.67C68.68 22.13 67.78 23.34 66.22 23.35C64.73 23.35 63.72 22.23 63.72 20.69C63.72 19.06 64.73 18.08 66.22 18.08ZM88.09 14.03L88.09 26.26L83.73 26.26L83.73 17.68L79.53 17.68L79.53 26.26L75.16 26.26L75.16 14.03L88.09 14.03ZM53.09 22.87C54.63 22.76 55.66 22.17 55.66 22.17L57.27 25.15C56.24 25.82 54.54 26.25 53.31 26.3C48.91 26.38 45.85 23.7 45.85 19.8C45.85 15.94 49.1 13.2 53.31 13.2C54.98 13.2 56.41 13.65 57.49 14.46C57.26 14.86 56.95 15.42 56.66 15.95L56.19 16.81L55.77 17.58C55.77 17.58 54.21 16.77 53.04 16.77C51.13 16.77 49.74 17.88 49.74 19.82C49.74 21.81 51.32 22.92 53.09 22.87ZM49.74 34.49C49.61 34.66 49.43 34.78 49.22 34.87C49.01 34.96 48.78 35 48.54 35C48.31 35 48.08 34.97 47.86 34.89C47.67 34.82 47.49 34.71 47.34 34.56C47.19 34.42 47.07 34.24 46.99 34.05C46.91 33.84 46.87 33.62 46.87 33.39C46.87 33.16 46.91 32.96 46.99 32.76C47.07 32.56 47.18 32.39 47.32 32.25C47.38 32.18 47.45 32.12 47.53 32.07L47.57 32.04C47.62 32.01 47.67 31.98 47.72 31.95L47.78 31.92L47.82 31.91C48.01 31.82 48.22 31.78 48.45 31.78C48.7 31.78 48.93 31.81 49.14 31.87C49.28 31.91 49.4 31.97 49.5 32.04C49.57 32.08 49.62 32.13 49.68 32.18L49.42 32.62C49.3 32.5 49.15 32.42 49 32.37C48.84 32.32 48.69 32.29 48.53 32.29C48.39 32.29 48.26 32.32 48.13 32.37C48 32.42 47.88 32.5 47.78 32.6C47.68 32.69 47.6 32.81 47.55 32.94C47.49 33.08 47.46 33.23 47.46 33.39C47.46 33.56 47.49 33.72 47.55 33.85C47.61 33.98 47.69 34.1 47.79 34.19C47.89 34.29 48.01 34.36 48.15 34.41C48.21 34.43 48.26 34.45 48.32 34.46C48.41 34.48 48.49 34.49 48.59 34.49C48.77 34.49 48.95 34.45 49.09 34.38C49.17 34.34 49.24 34.29 49.31 34.24C49.37 34.2 49.43 34.15 49.48 34.09L49.74 34.49ZM50.46 34.93L50.46 31.84L51.02 31.84L51.02 34.14L52.82 31.84L53.37 31.84L53.37 34.93L52.82 34.93L52.82 32.63L51.02 34.93L50.46 34.93ZM57.05 34.49C56.91 34.66 56.73 34.79 56.53 34.87C56.4 34.92 56.27 34.96 56.14 34.98C56.05 34.99 55.95 35 55.85 35C55.75 35 55.66 35 55.57 34.99C55.43 34.97 55.3 34.93 55.17 34.89C55.12 34.87 55.08 34.85 55.03 34.83C54.98 34.81 54.93 34.78 54.88 34.75C54.8 34.7 54.71 34.63 54.64 34.56C54.49 34.42 54.37 34.24 54.3 34.05C54.21 33.84 54.17 33.62 54.17 33.39C54.17 33.16 54.21 32.96 54.29 32.76C54.37 32.56 54.48 32.39 54.62 32.25C54.76 32.1 54.93 31.99 55.12 31.91C55.32 31.82 55.54 31.77 55.76 31.78C55.9 31.78 56.04 31.79 56.17 31.81L56.25 31.82C56.28 31.83 56.31 31.83 56.34 31.84L56.39 31.85L56.45 31.87C56.66 31.93 56.83 32.04 56.98 32.18L56.73 32.62C56.6 32.5 56.46 32.42 56.3 32.37C56.26 32.35 56.22 32.34 56.18 32.33C56.16 32.33 56.13 32.32 56.1 32.32C56.08 32.31 56.05 32.31 56.03 32.31L55.97 32.3C55.92 32.3 55.88 32.29 55.83 32.29C55.55 32.29 55.29 32.4 55.09 32.6C55.06 32.62 55.03 32.65 55.01 32.68C54.98 32.71 54.96 32.74 54.94 32.78C54.9 32.83 54.87 32.89 54.85 32.94C54.84 32.97 54.83 33 54.82 33.03C54.8 33.07 54.79 33.1 54.79 33.14C54.77 33.22 54.76 33.3 54.76 33.39C54.76 33.47 54.77 33.55 54.78 33.62C54.79 33.66 54.8 33.71 54.81 33.74C54.83 33.78 54.84 33.81 54.85 33.85C54.89 33.93 54.94 34.01 54.99 34.08C55.02 34.12 55.06 34.16 55.1 34.19C55.2 34.29 55.32 34.36 55.45 34.41C55.59 34.46 55.73 34.49 55.89 34.49C55.95 34.49 56.02 34.48 56.08 34.48C56.19 34.46 56.3 34.43 56.4 34.38C56.54 34.31 56.67 34.21 56.78 34.09L57.05 34.49ZM57.33 31.84L60.17 31.84L60.17 32.39L59.03 32.39L59.03 34.93L58.48 34.93L58.48 32.39L57.33 32.39L57.33 31.84ZM63.3 34.59C63.15 34.73 62.97 34.83 62.76 34.9C62.56 34.96 62.35 35 62.13 35C62.05 35 61.96 35 61.88 34.99C61.73 34.97 61.58 34.93 61.44 34.88C61.24 34.81 61.06 34.7 60.92 34.56C60.77 34.41 60.65 34.24 60.58 34.05C60.5 33.85 60.46 33.63 60.46 33.39C60.46 33.17 60.5 32.96 60.57 32.76C60.64 32.57 60.74 32.39 60.88 32.25C60.95 32.18 61.02 32.12 61.1 32.06C61.19 32 61.28 31.95 61.38 31.9C61.5 31.85 61.62 31.82 61.76 31.8C61.86 31.78 61.96 31.77 62.07 31.77C62.13 31.77 62.2 31.78 62.26 31.79C62.32 31.79 62.38 31.8 62.43 31.82C62.5 31.83 62.57 31.85 62.63 31.88C62.81 31.94 62.96 32.04 63.1 32.17C63.13 32.2 63.16 32.23 63.19 32.27C63.22 32.3 63.24 32.33 63.27 32.36C63.3 32.41 63.33 32.46 63.36 32.51C63.38 32.55 63.39 32.58 63.41 32.61C63.44 32.68 63.46 32.76 63.48 32.84C63.51 32.95 63.52 33.06 63.52 33.19C63.52 33.33 63.51 33.45 63.49 33.56L61.09 33.56C61.11 33.85 61.22 34.08 61.42 34.24C61.62 34.41 61.87 34.49 62.18 34.49C62.28 34.49 62.38 34.48 62.48 34.46C62.57 34.45 62.65 34.42 62.73 34.39C62.9 34.33 63.03 34.25 63.14 34.16L63.3 34.59ZM62.05 32.29C61.76 32.29 61.53 32.37 61.36 32.52C61.19 32.68 61.08 32.89 61.05 33.11L62.95 33.11C62.93 32.86 62.85 32.66 62.69 32.51C62.66 32.49 62.64 32.46 62.61 32.44C62.58 32.42 62.55 32.41 62.52 32.39C62.5 32.38 62.47 32.37 62.45 32.36C62.33 32.31 62.2 32.29 62.05 32.29ZM64.28 31.84L64.78 31.84L65.98 33.37L67.12 31.84L67.61 31.84L67.61 34.93L67.05 34.93L67.05 32.68L65.97 34.11L65.95 34.11L64.83 32.68L64.83 34.93L64.28 34.93L64.28 31.84ZM68.87 31.94C68.95 31.9 69.03 31.87 69.11 31.85C69.29 31.81 69.48 31.78 69.67 31.78C69.87 31.78 70.03 31.8 70.18 31.84C70.27 31.87 70.35 31.9 70.43 31.95C70.5 31.99 70.56 32.05 70.6 32.11C70.68 32.2 70.74 32.32 70.79 32.45C70.84 32.62 70.87 32.81 70.87 33.04L70.87 34.93L70.35 34.93L70.35 34.53C70.26 34.65 70.13 34.76 69.98 34.85C69.82 34.94 69.61 34.98 69.35 34.98C69.16 34.98 69 34.95 68.86 34.87C68.83 34.86 68.8 34.84 68.77 34.82C68.75 34.81 68.73 34.8 68.72 34.78C68.7 34.77 68.68 34.75 68.66 34.73C68.48 34.57 68.39 34.33 68.39 34.03C68.39 33.88 68.42 33.74 68.49 33.61C68.54 33.49 68.63 33.38 68.73 33.3C68.83 33.22 68.96 33.15 69.11 33.11C69.14 33.1 69.17 33.1 69.19 33.09L69.24 33.08L69.29 33.07C69.38 33.05 69.48 33.05 69.57 33.05C69.71 33.05 69.84 33.06 69.97 33.09C70.11 33.11 70.24 33.16 70.35 33.25C70.35 33.18 70.35 33.12 70.35 33.07L70.34 32.98C70.34 32.94 70.33 32.89 70.33 32.85C70.31 32.73 70.28 32.62 70.23 32.54C70.21 32.5 70.18 32.47 70.15 32.43C70.13 32.42 70.11 32.4 70.1 32.39C70.08 32.38 70.07 32.37 70.06 32.37C70.05 32.36 70.03 32.35 70.01 32.34C69.92 32.29 69.8 32.27 69.64 32.27C69.45 32.27 69.29 32.29 69.16 32.34L69.1 32.36L69.04 32.38L68.97 32.41C68.91 32.44 68.85 32.46 68.78 32.5L68.64 32.06C68.71 32.01 68.79 31.97 68.87 31.94ZM69.55 34.49C69.75 34.49 69.91 34.44 70.04 34.35C70.15 34.28 70.26 34.19 70.35 34.09L70.35 33.69C70.29 33.65 70.22 33.61 70.15 33.58C70.11 33.57 70.07 33.55 70.03 33.54C70 33.53 69.97 33.53 69.94 33.52C69.91 33.51 69.87 33.51 69.84 33.5C69.78 33.49 69.71 33.49 69.65 33.49C69.56 33.49 69.48 33.5 69.4 33.52C69.36 33.53 69.32 33.54 69.28 33.56C69.25 33.58 69.22 33.59 69.19 33.62C69.13 33.66 69.08 33.71 69.04 33.77L69.03 33.79C69.02 33.8 69.02 33.81 69.01 33.82C69.01 33.83 69 33.85 69 33.86C69 33.87 68.99 33.89 68.99 33.9C68.98 33.93 68.98 33.96 68.98 34C68.98 34.15 69.03 34.26 69.13 34.35C69.18 34.4 69.26 34.44 69.34 34.46C69.4 34.48 69.47 34.49 69.55 34.49ZM76.08 30.49C75.98 30.62 75.87 30.71 75.76 30.76C75.65 30.81 75.53 30.84 75.39 30.87C75.29 30.89 75.19 30.91 75.08 30.93L74.97 30.95C74.8 30.98 74.64 31.04 74.49 31.11C74.43 31.13 74.38 31.16 74.32 31.2C74.29 31.22 74.25 31.25 74.22 31.28L74.18 31.32L74.15 31.34L74.12 31.37C74.11 31.39 74.09 31.41 74.07 31.44C74.03 31.48 74 31.53 73.97 31.58C73.94 31.63 73.92 31.68 73.89 31.74C73.83 31.87 73.79 32.01 73.76 32.16C73.72 32.31 73.71 32.46 73.7 32.6L73.71 32.6C73.76 32.49 73.83 32.39 73.91 32.3C74 32.22 74.1 32.14 74.2 32.08C74.23 32.07 74.25 32.05 74.28 32.04C74.3 32.03 74.33 32.01 74.36 32C74.42 31.97 74.49 31.95 74.56 31.93C74.68 31.9 74.81 31.88 74.94 31.88C75.08 31.88 75.2 31.89 75.33 31.92C75.4 31.94 75.48 31.96 75.55 31.99C75.72 32.06 75.88 32.16 76.01 32.3C76.14 32.44 76.23 32.6 76.29 32.78C76.36 32.97 76.4 33.18 76.4 33.41C76.4 33.63 76.36 33.83 76.28 34.02C76.24 34.11 76.2 34.18 76.16 34.26C76.1 34.36 76.03 34.45 75.95 34.53C75.8 34.67 75.63 34.79 75.44 34.87C75.25 34.95 75.03 35 74.79 35C74.54 35 74.31 34.95 74.11 34.86C73.9 34.77 73.73 34.65 73.59 34.48C73.44 34.32 73.34 34.12 73.26 33.88C73.18 33.64 73.14 33.37 73.14 33.08C73.14 32.85 73.16 32.61 73.18 32.36C73.21 32.12 73.27 31.87 73.35 31.64C73.43 31.41 73.55 31.21 73.7 31.02C73.85 30.84 74.05 30.69 74.3 30.58L74.35 30.56C74.38 30.55 74.41 30.54 74.43 30.53C74.48 30.51 74.53 30.5 74.58 30.48C74.61 30.47 74.64 30.46 74.67 30.46C74.71 30.45 74.75 30.44 74.79 30.43L74.98 30.4L75.09 30.38L75.19 30.36C75.25 30.35 75.31 30.34 75.37 30.32C75.42 30.31 75.47 30.29 75.51 30.27C75.54 30.26 75.56 30.25 75.59 30.24L75.62 30.22C75.67 30.18 75.73 30.12 75.78 30.06L76.08 30.49ZM73.74 33.18C73.73 33.37 73.76 33.55 73.81 33.72C73.86 33.87 73.93 34.01 74.03 34.13C74.12 34.24 74.23 34.33 74.36 34.39C74.49 34.45 74.63 34.49 74.78 34.49C74.9 34.49 75.01 34.47 75.11 34.44L75.14 34.43C75.16 34.42 75.18 34.41 75.2 34.4C75.32 34.35 75.43 34.28 75.52 34.18C75.62 34.09 75.69 33.97 75.73 33.85C75.78 33.73 75.81 33.59 75.81 33.44C75.81 33.14 75.73 32.89 75.55 32.69C75.5 32.62 75.43 32.57 75.36 32.52C75.3 32.49 75.23 32.46 75.16 32.44C75.05 32.41 74.94 32.39 74.81 32.39C74.55 32.39 74.3 32.48 74.09 32.64C74 32.71 73.92 32.79 73.86 32.89C73.84 32.92 73.82 32.95 73.81 32.98C73.79 33.01 73.78 33.04 73.77 33.07C73.76 33.1 73.74 33.14 73.74 33.18ZM80.09 31.84L80.65 31.84L80.65 34.93L80.09 34.93L80.09 31.84ZM77.75 31.84L77.2 31.84L77.19 31.84L77.19 34.93L78.2 34.93C78.25 34.93 78.3 34.93 78.34 34.93C78.37 34.93 78.4 34.92 78.43 34.92C78.46 34.92 78.48 34.92 78.5 34.91C78.62 34.9 78.72 34.87 78.82 34.84C78.85 34.82 78.89 34.81 78.93 34.79L78.97 34.77L79.01 34.75C79.03 34.73 79.06 34.72 79.08 34.7C79.1 34.69 79.11 34.68 79.12 34.67C79.14 34.66 79.16 34.64 79.17 34.63C79.19 34.61 79.2 34.6 79.22 34.59C79.31 34.48 79.39 34.37 79.43 34.24C79.46 34.16 79.47 34.08 79.49 34C79.49 33.95 79.5 33.89 79.5 33.83C79.5 33.8 79.5 33.77 79.49 33.75C79.49 33.72 79.49 33.69 79.49 33.67C79.48 33.59 79.46 33.51 79.44 33.43C79.4 33.31 79.33 33.19 79.24 33.1C79.14 33 79.02 32.92 78.86 32.86C78.7 32.8 78.5 32.77 78.26 32.77L77.75 32.77L77.75 31.84ZM78.15 34.42L77.75 34.42L77.75 33.29L77.75 33.28L78.16 33.28C78.21 33.28 78.26 33.28 78.31 33.28C78.38 33.29 78.44 33.3 78.5 33.31C78.54 33.32 78.58 33.34 78.62 33.35C78.66 33.37 78.7 33.4 78.74 33.42C78.77 33.46 78.8 33.49 78.83 33.54C78.86 33.58 78.88 33.64 78.89 33.69C78.9 33.74 78.91 33.79 78.91 33.85C78.91 34.04 78.85 34.17 78.74 34.27C78.69 34.31 78.62 34.35 78.54 34.37C78.44 34.4 78.31 34.42 78.15 34.42ZM84.31 34.49C84.18 34.66 84 34.78 83.79 34.87C83.58 34.96 83.34 35 83.11 35C82.88 35 82.65 34.97 82.43 34.89C82.23 34.82 82.06 34.71 81.9 34.56C81.85 34.51 81.8 34.45 81.75 34.38L81.71 34.33C81.7 34.31 81.68 34.29 81.67 34.27L81.65 34.24C81.64 34.22 81.63 34.2 81.62 34.18C81.6 34.15 81.59 34.12 81.58 34.09L81.56 34.05C81.48 33.84 81.44 33.62 81.44 33.39C81.44 33.16 81.48 32.96 81.56 32.76C81.63 32.56 81.75 32.39 81.89 32.25C82.03 32.1 82.2 31.99 82.39 31.91C82.59 31.82 82.8 31.77 83.02 31.78C83.27 31.78 83.5 31.81 83.71 31.87C83.92 31.93 84.1 32.04 84.25 32.18L83.99 32.62C83.94 32.57 83.88 32.53 83.82 32.49C83.8 32.47 83.77 32.46 83.73 32.44C83.71 32.43 83.69 32.41 83.66 32.4L83.61 32.39L83.56 32.37C83.41 32.32 83.26 32.29 83.1 32.29C83.04 32.29 82.99 32.3 82.93 32.31C82.85 32.32 82.77 32.34 82.69 32.37C82.57 32.42 82.45 32.5 82.35 32.6C82.32 32.63 82.29 32.66 82.26 32.7L82.24 32.73C82.19 32.8 82.15 32.87 82.12 32.94C82.06 33.08 82.03 33.23 82.03 33.39C82.03 33.56 82.06 33.72 82.12 33.85C82.18 33.98 82.26 34.1 82.36 34.19C82.46 34.29 82.58 34.36 82.72 34.41C82.86 34.46 83 34.49 83.15 34.49C83.27 34.49 83.37 34.48 83.47 34.45C83.5 34.44 83.52 34.43 83.55 34.42C83.59 34.41 83.62 34.4 83.66 34.38C83.81 34.31 83.94 34.21 84.05 34.09L84.31 34.49ZM84.6 31.84L87.44 31.84L87.44 32.39L86.29 32.39L86.29 34.93L85.74 34.93L85.74 32.39L84.6 32.39L84.6 31.84ZM88.04 31.84L88.59 31.84L88.59 32.21C88.7 32.08 88.85 31.98 89.04 31.9C89.24 31.82 89.44 31.77 89.66 31.77C89.69 31.77 89.73 31.77 89.76 31.78C89.83 31.78 89.9 31.79 89.97 31.8C90.07 31.82 90.16 31.85 90.26 31.89C90.43 31.96 90.58 32.08 90.71 32.21C90.84 32.36 90.93 32.53 91 32.71C91.03 32.8 91.05 32.9 91.07 33C91.09 33.11 91.1 33.22 91.1 33.34C91.1 33.57 91.06 33.79 90.98 33.99C90.91 34.2 90.8 34.37 90.65 34.52C90.51 34.67 90.33 34.79 90.14 34.87C89.94 34.95 89.72 35 89.47 35C89.31 35 89.15 34.98 88.99 34.95C88.84 34.91 88.71 34.86 88.59 34.79L88.59 36.3L88.04 36.3L88.04 31.84ZM89.5 32.29C89.31 32.29 89.14 32.33 88.98 32.42C88.82 32.5 88.69 32.6 88.6 32.72L88.6 34.25C88.72 34.33 88.86 34.39 89.01 34.43C89.14 34.47 89.28 34.49 89.43 34.49C89.58 34.49 89.74 34.46 89.88 34.4C90.01 34.35 90.13 34.27 90.22 34.17C90.32 34.07 90.39 33.94 90.44 33.81C90.49 33.67 90.51 33.53 90.51 33.36C90.51 33.32 90.51 33.29 90.51 33.26L90.51 33.2L90.5 33.16L90.49 33.12L90.49 33.08L90.48 33.04C90.47 33 90.46 32.96 90.45 32.93C90.4 32.8 90.34 32.69 90.25 32.59C90.16 32.49 90.06 32.42 89.93 32.37C89.8 32.32 89.66 32.29 89.5 32.29ZM94.79 31.84L95.35 31.84L95.35 34.93L94.79 34.93L94.79 31.84ZM92.45 31.84L91.89 31.84L91.89 31.84L91.89 34.93L92.9 34.93C93.14 34.93 93.35 34.9 93.51 34.84C93.68 34.77 93.82 34.69 93.91 34.59C94.01 34.48 94.09 34.37 94.13 34.24C94.17 34.1 94.19 33.97 94.19 33.83C94.19 33.69 94.17 33.56 94.13 33.43C94.1 33.31 94.03 33.19 93.93 33.1C93.84 33 93.71 32.92 93.56 32.86C93.4 32.8 93.2 32.77 92.96 32.77L92.45 32.77L92.45 31.84ZM92.86 34.42L92.45 34.42L92.45 33.29L92.45 33.28L92.86 33.28C93.13 33.28 93.32 33.33 93.44 33.42C93.55 33.52 93.61 33.66 93.61 33.85C93.61 34.04 93.55 34.17 93.44 34.27C93.33 34.37 93.13 34.42 92.86 34.42ZM98.01 33.33L99.19 34.93L98.51 34.93L97.6 33.68L96.67 34.93L96.02 34.93L97.2 33.36L96.09 31.84L96.77 31.84L97.62 33.01L98.48 31.84L99.12 31.84L98.01 33.33ZM49.33 38.74L47.63 38.74L47.63 41.32L47.08 41.32L47.08 38.23L49.89 38.23L49.89 41.32L49.33 41.32L49.33 38.74ZM53.03 38.78L51.94 38.78L51.9 39.3C51.88 39.57 51.85 39.82 51.81 40.03C51.79 40.15 51.76 40.26 51.74 40.36C51.66 40.63 51.57 40.84 51.47 40.99C51.36 41.13 51.24 41.23 51.1 41.28C50.95 41.33 50.8 41.36 50.65 41.36L50.6 40.82C50.66 40.83 50.73 40.81 50.81 40.78C50.89 40.74 50.97 40.67 51.04 40.55C51.11 40.43 51.18 40.27 51.24 40.05C51.3 39.83 51.34 39.55 51.36 39.19L51.41 38.23L53.59 38.23L53.59 41.32L53.03 41.32L53.03 38.78ZM54.6 38.44C54.74 38.35 54.9 38.29 55.08 38.24C55.26 38.19 55.45 38.16 55.64 38.16C56.08 38.16 56.39 38.27 56.57 38.49C56.75 38.71 56.84 39.02 56.84 39.42L56.84 41.32L56.32 41.32L56.32 40.92C56.22 41.04 56.1 41.14 55.94 41.23C55.78 41.32 55.58 41.36 55.32 41.36C55.03 41.36 54.8 41.28 54.62 41.11C54.53 41.02 54.46 40.91 54.41 40.78C54.38 40.67 54.36 40.55 54.36 40.41C54.36 40.39 54.36 40.37 54.36 40.34C54.36 40.3 54.37 40.25 54.38 40.2C54.4 40.13 54.42 40.06 54.45 39.99C54.51 39.87 54.59 39.77 54.7 39.68C54.75 39.64 54.81 39.6 54.88 39.57C54.94 39.54 55 39.51 55.07 39.5C55.22 39.45 55.37 39.43 55.54 39.43C55.67 39.43 55.81 39.45 55.94 39.47C55.99 39.48 56.04 39.49 56.09 39.51C56.17 39.54 56.24 39.58 56.32 39.63C56.32 39.49 56.31 39.35 56.29 39.23C56.28 39.17 56.27 39.11 56.25 39.05C56.24 39.03 56.23 39 56.22 38.97C56.21 38.96 56.2 38.94 56.19 38.92C56.14 38.84 56.07 38.77 55.98 38.73C55.92 38.69 55.84 38.67 55.76 38.66L55.72 38.66C55.68 38.65 55.65 38.65 55.61 38.65C55.42 38.65 55.25 38.67 55.13 38.72C55.09 38.73 55.05 38.75 55.02 38.76C54.93 38.79 54.84 38.83 54.75 38.88L54.6 38.44ZM55.51 40.87C55.64 40.87 55.75 40.85 55.85 40.82C55.91 40.8 55.96 40.77 56.01 40.74C56.12 40.66 56.23 40.57 56.32 40.47L56.32 40.08C56.12 39.94 55.89 39.87 55.62 39.87C55.58 39.87 55.55 39.87 55.52 39.88C55.47 39.88 55.42 39.89 55.37 39.9C55.29 39.92 55.22 39.96 55.16 40C55.1 40.04 55.04 40.09 55.01 40.16C54.97 40.22 54.95 40.3 54.95 40.38C54.95 40.53 55 40.65 55.1 40.74C55.19 40.82 55.33 40.87 55.51 40.87ZM57.38 38.23L60.22 38.23L60.22 38.78L59.08 38.78L59.08 41.32L58.53 41.32L58.53 38.78L57.38 38.78L57.38 38.23ZM63.06 41.18C62.98 41.22 62.9 41.26 62.81 41.28C62.6 41.35 62.39 41.38 62.18 41.38C61.95 41.39 61.71 41.35 61.49 41.27C61.28 41.19 61.11 41.09 60.97 40.94C60.82 40.8 60.71 40.63 60.63 40.43C60.55 40.24 60.51 40.02 60.51 39.77C60.51 39.56 60.54 39.34 60.62 39.14C60.65 39.05 60.69 38.97 60.74 38.89C60.79 38.8 60.86 38.71 60.93 38.63C61.07 38.48 61.24 38.37 61.43 38.29C61.63 38.21 61.86 38.16 62.12 38.16C62.31 38.16 62.5 38.19 62.68 38.26C62.86 38.33 63.01 38.43 63.15 38.55C63.28 38.68 63.38 38.83 63.46 39C63.53 39.17 63.57 39.36 63.57 39.58C63.57 39.72 63.56 39.84 63.54 39.95L61.14 39.95C61.16 40.24 61.27 40.47 61.47 40.63C61.67 40.79 61.92 40.87 62.23 40.87C62.43 40.87 62.62 40.84 62.78 40.78C62.95 40.72 63.08 40.64 63.19 40.55L63.35 40.98C63.26 41.06 63.17 41.13 63.06 41.18ZM62.09 38.67C61.8 38.67 61.58 38.75 61.4 38.91C61.23 39.06 61.13 39.27 61.1 39.5L62.99 39.5C62.98 39.24 62.89 39.04 62.74 38.89C62.58 38.75 62.36 38.67 62.09 38.67ZM64.54 38.23L63.84 38.23L64.99 39.72L63.79 41.32L64.47 41.32L65.61 39.72L64.54 38.23ZM66.3 38.23L65.75 38.23L65.75 41.32L66.3 41.32L66.3 38.23ZM67.06 39.72L68.28 41.32L67.6 41.32L66.44 39.72L67.51 38.23L68.2 38.23L67.06 39.72ZM71.36 40.98C71.2 41.12 71.03 41.22 70.81 41.28C70.61 41.35 70.4 41.38 70.19 41.38C69.95 41.39 69.72 41.35 69.5 41.27C69.29 41.19 69.11 41.09 68.97 40.94C68.83 40.8 68.71 40.63 68.63 40.43C68.56 40.24 68.51 40.02 68.51 39.77C68.51 39.56 68.55 39.34 68.62 39.14C68.69 38.95 68.8 38.78 68.94 38.63C69.08 38.48 69.25 38.37 69.44 38.29C69.64 38.21 69.86 38.16 70.12 38.16C70.32 38.16 70.51 38.19 70.69 38.26C70.86 38.33 71.02 38.43 71.15 38.55C71.28 38.68 71.39 38.83 71.46 39C71.54 39.17 71.58 39.36 71.58 39.58C71.58 39.72 71.56 39.84 71.54 39.95L69.14 39.95C69.17 40.24 69.28 40.47 69.47 40.63C69.67 40.79 69.93 40.87 70.23 40.87C70.44 40.87 70.62 40.84 70.79 40.78C70.95 40.72 71.09 40.64 71.19 40.55L71.36 40.98ZM70.1 38.67C69.81 38.67 69.58 38.75 69.41 38.91C69.24 39.06 69.13 39.27 69.1 39.5L71 39.5C70.98 39.24 70.9 39.04 70.74 38.89C70.58 38.75 70.37 38.67 70.1 38.67ZM73.44 37.05C73.53 37.15 73.66 37.19 73.82 37.19C74.13 37.19 74.3 37.01 74.33 36.65L74.85 36.65C74.85 36.79 74.82 36.92 74.77 37.03C74.72 37.15 74.65 37.25 74.57 37.33C74.53 37.37 74.49 37.4 74.44 37.43C74.38 37.47 74.32 37.51 74.24 37.54C74.17 37.57 74.1 37.59 74.02 37.6C73.95 37.61 73.89 37.61 73.82 37.61C73.75 37.61 73.69 37.61 73.63 37.6C73.53 37.59 73.45 37.57 73.37 37.54C73.24 37.48 73.13 37.42 73.04 37.33C72.99 37.29 72.94 37.23 72.9 37.16C72.88 37.12 72.86 37.08 72.84 37.03C72.81 36.97 72.79 36.9 72.78 36.83C72.77 36.77 72.77 36.71 72.77 36.65L73.29 36.65C73.3 36.83 73.35 36.96 73.44 37.05ZM72.88 41.32L72.33 41.32L72.33 38.23L72.88 38.23L72.88 40.53L74.68 38.23L75.24 38.23L75.24 41.32L74.68 41.32L74.68 39.02L72.88 41.32Z" fill="#000000" fill-opacity="1.000000" fill-rule="evenodd"/>
</svg>
