<svg width="118" height="36" viewBox="0 0 118 36" fill="none" xmlns="http://www.w3.org/2000/svg">
<path fill-rule="evenodd" clip-rule="evenodd" d="M55.4018 14.949C56.554 14.949 57.6128 15.0422 58.4225 15.3536C60.1353 16.008 61.2253 17.4715 61.2253 19.5889C61.2253 21.6759 60.0732 23.264 58.3603 23.9178C57.5504 24.2292 56.4607 24.3538 54.9969 24.3538H44.4707V9.53027H60.0107V12.9557H48.9862V14.949H55.4018ZM55.1525 20.6169C55.5885 20.6169 55.9311 20.5855 56.1803 20.4923C56.7097 20.3055 56.9276 19.838 56.9276 19.402C56.9276 19.2375 56.901 19.0858 56.8476 18.9511C56.8157 18.8707 56.7742 18.7961 56.7232 18.728C56.6337 18.6093 56.515 18.5108 56.3671 18.4368C56.3219 18.4144 56.2746 18.3942 56.2255 18.3766C56.1466 18.3484 56.0626 18.3266 55.9737 18.309C55.7361 18.2621 55.4625 18.2499 55.1525 18.2499H48.9862V20.6169H55.1525ZM67.2845 9.53027H73.8865L79.9594 24.3538H74.8831L74.0111 22.2051H67.1599L66.3191 24.3538H61.2117L67.2845 9.53027ZM70.4299 12.9557L68.2809 18.9351H72.9213L70.7724 12.9557H70.4299ZM85.7717 18.8419V24.3538H81.2563V9.53027H85.7717V14.949H93.0279V9.53027H97.5437V24.3538H93.0279V18.8419H85.7717ZM104.691 24.3538V18.7482H105.937L111.324 24.3538H117.335L109.83 16.6309L117.055 9.53027H111.387L105.937 15.105H104.691V9.53027H100.175V24.3538H104.691Z" fill="#333333"/>
<path d="M0 0H36V18.1054C36 22.7468 33.524 27.0358 29.5046 29.3568L18 36L6.49547 29.3568C2.47602 27.0358 0 22.7468 0 18.1054V0Z" fill="#FFDD2D"/>
<path fill-rule="evenodd" clip-rule="evenodd" d="M9.88037 9.53027V15.1614C10.6504 14.2919 12.0505 13.7034 13.6513 13.7034H15.3909V20.2495C15.3909 21.9911 14.9177 23.5155 14.2156 24.354H21.7825C21.0819 23.5147 20.6098 21.9922 20.6098 20.2529V13.7034H22.3495C23.9503 13.7034 25.3503 14.2919 26.1204 15.1614V9.53027H9.88037Z" fill="#333333"/>
</svg>
